<?xml version="1.0" standalone="no"?>
<!DOCTYPE svg PUBLIC "-//W3C//DTD SVG 20010904//EN"
 "http://www.w3.org/TR/2001/REC-SVG-20010904/DTD/svg10.dtd">
<svg version="1.0" xmlns="http://www.w3.org/2000/svg"
 width="457.000000pt" height="386.000000pt" viewBox="0 0 457.000000 386.000000"
 preserveAspectRatio="xMidYMid meet">

<g fill="red" transform="translate(0.000000,386.000000) scale(0.100000,-0.100000)"
fill="#000000" stroke="none">
<path d="M2054 3850 c-66 -9 -149 -47 -199 -91 -63 -55 -804 -988 -834 -1049
-23 -49 -26 -67 -26 -160 0 -97 2 -110 31 -170 18 -36 45 -79 61 -96 61 -65
989 -797 1040 -821 135 -62 298 -44 413 47 50 40 803 985 835 1049 64 127 52
282 -32 404 -39 57 -1001 825 -1071 855 -75 33 -142 42 -218 32z m491 -699
c47 -22 89 -64 104 -104 21 -56 22 -47 -83 -744 -30 -199 -62 -375 -70 -391
-52 -101 -183 -138 -278 -79 -19 12 -212 164 -430 338 -284 228 -399 326 -411
350 -44 95 -12 210 72 257 20 11 140 61 266 111 127 49 338 133 470 185 257
102 291 109 360 77z"/>
<path d="M2265 2944 c-104 -41 -313 -123 -464 -182 -278 -108 -315 -129 -294
-166 9 -15 763 -620 795 -637 14 -8 25 -7 41 4 21 13 28 53 95 498 40 266 72
495 72 510 0 29 -17 49 -39 49 -9 -1 -101 -35 -206 -76z"/>
<path d="M283 1945 c-144 -45 -251 -173 -274 -328 -12 -84 -11 -1184 1 -1270
26 -177 162 -311 342 -337 82 -12 1184 -12 1265 -1 134 20 244 99 304 219 l34
67 3 552 3 552 -352 281 -351 280 -467 -1 c-356 0 -476 -3 -508 -14z m572
-357 c22 -5 61 -21 87 -34 26 -13 50 -20 53 -15 9 15 114 52 174 62 204 33
422 -99 501 -306 33 -85 33 -225 0 -310 -38 -99 -64 -131 -284 -352 -224 -225
-262 -253 -367 -268 -60 -9 -157 16 -212 54 -77 54 -452 442 -480 496 -44 89
-60 160 -55 249 18 299 292 499 583 424z"/>
<path d="M684 1449 c-159 -20 -275 -169 -261 -336 8 -110 33 -145 264 -375
178 -177 214 -208 251 -218 50 -13 93 -6 138 21 17 11 118 108 224 216 225
229 244 260 245 383 0 62 -5 85 -28 132 -92 187 -325 238 -489 108 -20 -17
-40 -30 -43 -30 -4 0 -24 13 -44 29 -76 60 -159 83 -257 70z"/>
<path d="M2882 1697 c-149 -186 -228 -275 -268 -305 -31 -23 -61 -42 -66 -42
-5 0 -8 -216 -6 -527 l3 -528 27 -57 c58 -124 178 -211 314 -229 94 -12 1182
-11 1267 1 176 26 311 161 337 337 12 84 13 1172 1 1265 -18 136 -99 251 -220
311 l-66 32 -556 3 -557 3 -210 -264z m708 -116 c15 -10 56 -78 99 -162 l75
-146 145 -22 c201 -32 235 -49 248 -124 10 -63 -4 -88 -124 -209 l-116 -117
22 -138 c30 -194 29 -217 -12 -258 -21 -21 -48 -36 -72 -41 -36 -6 -52 0 -187
69 l-148 76 -154 -76 c-137 -67 -158 -75 -192 -69 -43 9 -90 51 -100 92 -4 16
-2 64 4 106 7 43 17 114 24 158 l12 81 -106 107 c-58 59 -113 118 -122 132
-36 55 -6 149 57 174 17 8 98 24 179 36 l146 23 76 147 c72 140 96 171 141
183 30 7 77 -2 105 -22z"/>
<path d="M3439 1278 l-74 -143 -155 -24 c-85 -13 -157 -26 -160 -28 -2 -2 46
-54 108 -116 75 -76 112 -120 112 -135 0 -12 -9 -81 -21 -153 -11 -72 -19
-133 -16 -135 3 -3 67 26 143 64 l139 70 148 -75 c111 -55 147 -69 143 -56 -2
10 -15 83 -27 161 l-22 144 114 114 c62 62 111 115 109 117 -3 3 -75 15 -160
28 l-154 24 -71 137 c-39 76 -74 140 -77 143 -3 3 -39 -58 -79 -137z"/>
</g>
</svg>
